# xmcd
#
# Track frame offsets:
# 150
# 14350
# 27367
# 40745
# 60977
#
# Disc length: 1011 seconds
#
#
# Revision: 3
# Processed by: cddbd v1.5.1PL0 Copyright (c) Steve Scherf et al.
# Submitted via: FreeRIP 2.942 
#
DISCID=3203f105
DTITLE=sure shot - Demo
DYEAR=1998
DGENRE=Country
TTITLE0=hank didn't were no earring
TTITLE1=down to the bayou
TTITLE2=country's what i am
TTITLE3=time flies
TTITLE4=white line therapy
EXTD=
EXTT0=
EXTT1=
EXTT2=
EXTT3=
EXTT4=
PLAYORDER=
